<?xml version="1.0" standalone="no"?>
<!DOCTYPE svg PUBLIC "-//W3C//DTD SVG 20010904//EN" "http://www.w3.org/TR/2001/REC-SVG-20010904/DTD/svg10.dtd">
<svg version="1.0" xmlns="http://www.w3.org/2000/svg" viewBox="0 0 390.000000 145.000000"
    preserveAspectRatio="xMidYMid meet">

    <g transform="translate(0.000000,145.000000) scale(0.100000,-0.100000)" fill="#000000" stroke="none">
        <path d="M3376 1220 c-45 -40 -97 -163 -104 -248 -4 -54 -8 -65 -28 -74 -19
-9 -28 -6 -54 16 -17 14 -37 26 -43 26 -7 0 -18 9 -25 20 -7 12 -17 18 -23 15
-5 -4 -17 -1 -25 6 -11 9 -18 8 -34 -6 -62 -56 -68 -298 -8 -351 24 -22 85
-20 117 4 52 38 64 67 69 156 4 76 7 87 28 101 24 15 24 15 24 -18 0 -49 28
-146 55 -192 67 -115 145 -137 203 -56 l28 39 19 -28 c24 -35 65 -60 100 -60
35 0 86 53 102 103 13 42 8 41 -56 -7 -61 -45 -65 -41 -108 124 -21 82 -24
111 -20 210 3 89 9 126 25 164 19 42 24 47 38 35 17 -14 16 -94 -1 -134 -8
-19 -8 -19 12 -2 25 21 47 99 37 130 -9 31 -34 57 -55 57 -35 0 -87 -59 -121
-138 -31 -73 -33 -83 -33 -197 0 -91 4 -133 18 -173 l19 -52 -24 -20 c-29 -25
-58 -34 -68 -23 -5 4 -21 49 -36 98 -25 80 -28 106 -28 230 -1 124 2 146 22
189 19 42 24 47 38 35 17 -14 16 -94 -1 -134 -8 -19 -8 -19 12 -2 25 21 47 99
37 130 -9 31 -34 57 -55 57 -10 0 -34 -14 -53 -30z m-220 -327 c17 -17 17 -18
-5 -21 -27 -4 -47 11 -37 27 10 16 22 14 42 -6z m-9 -43 c25 0 26 -1 20 -57
-6 -58 -31 -106 -59 -111 -21 -4 -31 54 -22 124 5 43 10 54 21 50 8 -3 26 -6
40 -6z" />
        <path d="M1823 1190 c-36 -33 -111 -45 -208 -35 -53 6 -65 5 -65 -7 0 -18 105
-56 178 -65 60 -7 59 -5 42 -121 -5 -37 -11 -142 -12 -234 -3 -160 -2 -167 17
-172 37 -10 64 -6 73 11 5 10 12 83 16 163 3 80 11 191 17 246 l11 101 53 22
c56 23 111 73 100 90 -4 7 -30 9 -76 5 -58 -6 -69 -4 -69 8 0 25 -43 18 -77
-12z" />
        <path d="M1295 1160 c-8 -13 3 -30 20 -30 22 0 35 -34 35 -93 0 -72 -36 -341
-54 -400 -7 -25 -11 -48 -8 -51 13 -13 64 -4 82 14 16 16 38 21 107 26 106 7
114 9 107 29 -5 12 -24 15 -90 15 -61 0 -84 3 -84 13 0 40 26 170 34 172 6 2
28 6 50 10 45 7 41 16 -11 24 l-37 6 3 70 c1 40 8 73 14 77 7 4 30 8 52 8 60
2 118 14 122 26 2 7 -29 13 -93 17 -84 5 -100 9 -123 30 -47 44 -110 62 -126
37z" />
        <path d="M823 1120 c-27 -11 -30 -30 -5 -30 19 0 42 -18 42 -32 0 -4 -15 -7
-32 -6 -31 3 -33 1 -33 -27 0 -25 4 -30 25 -30 15 0 29 8 36 23 11 22 12 20
19 -20 5 -24 9 -109 10 -190 2 -153 8 -178 46 -178 11 0 19 4 19 8 0 5 10 8
22 8 18 -1 24 6 30 39 11 63 9 198 -4 255 -11 50 -11 53 13 71 13 10 28 19 33
19 5 0 6 -50 3 -119 -7 -130 -1 -151 47 -151 21 0 24 5 30 77 3 42 6 94 6 115
0 25 9 52 24 74 l23 35 7 -32 c10 -54 6 -161 -9 -234 -31 -146 -12 -258 47
-279 29 -10 98 0 98 14 0 6 -7 10 -15 10 -42 0 -57 110 -35 245 21 128 7 261
-32 303 -31 32 -62 28 -96 -14 -29 -35 -30 -35 -55 -20 -26 18 -49 13 -94 -20
-21 -15 -22 -15 -29 21 -3 20 -16 45 -27 56 -22 20 -75 24 -114 9z" />
        <path d="M615 1043 c-29 -43 -96 -242 -119 -354 -21 -100 -43 -255 -51 -356
-6 -74 -5 -83 14 -102 28 -28 48 -26 80 8 54 58 131 303 131 417 0 61 1 63 36
83 45 27 45 27 38 -8 -5 -24 -1 -32 20 -46 64 -42 104 34 92 172 -4 42 -12 85
-18 96 -9 18 -12 16 -39 -24 -16 -24 -34 -68 -41 -97 -11 -53 -35 -76 -86 -87
-10 -2 -25 -7 -36 -11 -15 -6 -14 -1 8 33 57 86 93 243 67 291 -20 37 -65 29
-96 -15z m63 -111 c-6 -56 -45 -168 -56 -157 -6 6 48 215 56 215 2 0 2 -26 0
-58z m-38 -310 c-21 -96 -65 -226 -94 -277 l-17 -30 6 30 c3 17 17 95 30 175
14 80 28 153 31 162 4 14 53 40 61 33 2 -1 -6 -43 -17 -93z" />
        <path d="M54 1046 c-16 -40 20 -72 51 -46 22 18 18 47 -7 54 -33 8 -38 8 -44
-8z" />
        <path d="M2640 1040 c-13 -9 -13 -12 2 -21 24 -13 48 -100 48 -169 0 -43 -5
-64 -21 -84 -43 -55 -131 -76 -144 -35 -15 46 14 149 50 179 13 11 18 10 34
-5 19 -16 19 -16 14 7 -7 28 -20 38 -51 38 -62 0 -127 -87 -131 -174 -2 -51 1
-60 28 -86 22 -22 39 -30 66 -30 45 0 96 21 124 51 l23 24 -7 -35 c-5 -29 -2
-39 14 -54 18 -16 25 -17 44 -7 19 10 26 28 40 104 9 51 17 100 17 110 0 16
77 64 87 54 2 -3 -1 -23 -7 -46 -16 -61 19 -110 54 -75 46 45 20 184 -34 184
-11 0 -37 -16 -59 -35 l-39 -35 -11 46 c-20 80 -91 127 -141 94z" />
        <path d="M156 983 c16 -32 9 -214 -9 -276 -13 -43 -15 -62 -7 -77 15 -27 56
-26 74 3 23 36 56 161 56 214 0 56 12 73 51 73 40 0 43 -13 20 -80 -25 -71
-26 -101 -6 -139 23 -46 69 -55 100 -21 15 16 15 20 3 15 -8 -3 -22 0 -30 9
-12 12 -13 25 -5 78 16 99 14 136 -10 160 -23 22 -69 27 -99 10 -11 -6 -23 -1
-44 20 -21 21 -38 28 -65 28 -32 0 -36 -2 -29 -17z" />
        <path d="M2353 989 c-23 -7 -37 -20 -52 -52 -32 -66 -35 -113 -12 -198 l19
-76 -29 -58 c-34 -67 -37 -122 -10 -156 16 -20 23 -22 46 -14 56 20 80 122 55
230 -8 36 -6 44 18 78 52 73 54 82 9 32 l-46 -50 -2 30 c-7 88 25 183 66 199
20 7 19 32 -1 40 -18 7 -19 7 -61 -5z m-24 -436 c1 -37 -18 -85 -30 -77 -12 7
-11 47 3 102 9 37 13 42 19 26 4 -10 8 -33 8 -51z" />
        <path d="M58 927 c-28 -45 -42 -92 -52 -174 -6 -48 -5 -53 19 -69 71 -46 112
60 86 219 -11 68 -22 73 -53 24z" />
    </g>
</svg>